<svg width="620" height="1671" viewBox="0 0 620 1671" fill="none" xmlns="http://www.w3.org/2000/svg">
<path d="M6 6.161C92 2.16099 288.065 72.1611 268 276.161C256 398.161 187.333 445.494 138 474.161C88.6668 502.829 39.0667 532.161 22 612.161C-0.186674 716.161 48.0003 808.161 138 850.161C285.908 900.546 302 1022.16 288 1114.16C282.282 1151.73 256 1193.49 226 1214.16C136 1276.16 94 1288.16 64 1348.16C41.1437 1393.87 -20 1542.16 166 1644.16C288 1711.06 404 1596.16 450 1506.16C480.667 1459.49 556.4 1367.76 614 1374.16" stroke="white" stroke-width="6" stroke-linecap="round" stroke-dasharray="12 22"/>
</svg>
