<svg width="120" height="86" viewBox="0 0 120 86" fill="none" xmlns="http://www.w3.org/2000/svg">
<mask id="mask0_253_19" style="mask-type:luminance" maskUnits="userSpaceOnUse" x="0" y="0" width="120" height="86">
<path d="M120 0H0V86H120V0Z" fill="white"/>
</mask>
<g mask="url(#mask0_253_19)">
<g opacity="0.55">
<path d="M114.339 2.99901C114.339 1.52701 115.533 0.333008 117.005 0.333008C118.478 0.333008 119.672 1.52701 119.672 2.99901C119.672 4.47201 118.478 5.66701 117.005 5.66701C115.533 5.66701 114.339 4.47201 114.339 2.99901ZM0.837875 82.499C0.837875 81.027 2.03188 79.833 3.50488 79.833C4.97787 79.833 6.17188 81.027 6.17188 82.499C6.17188 83.972 4.97787 85.167 3.50488 85.167C2.03188 85.167 0.837875 83.972 0.837875 82.499ZM117.005 3.49901H83.0049L82.8639 2.49901H117.005V3.49901ZM83.3589 3.35401L3.85887 82.854L3.15088 82.146L82.8649 2.49601L83.3589 3.35401Z" fill="white"/>
</g>
<mask id="mask1_253_19" style="mask-type:luminance" maskUnits="userSpaceOnUse" x="63" y="30" width="38" height="44">
<path d="M81.4054 30.7529L63.6484 63.4039L83.1214 73.9939L100.878 41.3439L81.4054 30.7529Z" fill="white"/>
</mask>
<g mask="url(#mask1_253_19)">
<path d="M114.339 2.99901C114.339 1.52701 115.533 0.333008 117.005 0.333008C118.478 0.333008 119.672 1.52701 119.672 2.99901C119.672 4.47201 118.478 5.66701 117.005 5.66701C115.533 5.66701 114.339 4.47201 114.339 2.99901ZM0.837875 82.499C0.837875 81.027 2.03188 79.833 3.50488 79.833C4.97787 79.833 6.17188 81.027 6.17188 82.499C6.17188 83.972 4.97787 85.167 3.50488 85.167C2.03188 85.167 0.837875 83.972 0.837875 82.499ZM117.005 3.49901H83.0049L82.8639 2.49901H117.005V3.49901ZM83.3589 3.35401L3.85887 82.854L3.15088 82.146L82.8649 2.49601L83.3589 3.35401Z" fill="white"/>
</g>
</g>
</svg>
