<?xml version="1.0" encoding="UTF-8"?> <svg xmlns="http://www.w3.org/2000/svg" width="162" height="41" viewBox="0 0 162 41" fill="none"> <g clip-path="url(#clip0_524_2026)"> <path d="M157.636 30.2177C156.973 30.2177 156.426 30.1009 155.919 29.9451C155.411 29.7503 154.982 29.4777 154.631 29.1272C154.279 28.7766 154.045 28.3482 153.85 27.8419C153.655 27.3355 153.577 26.7903 153.577 26.1281V18.3774H152.211C152.016 18.3774 151.821 18.2995 151.703 18.1827C151.547 18.0658 151.469 17.8711 151.469 17.5985V16.0795L153.772 15.651L154.553 11.9509C154.67 11.5225 154.943 11.3278 155.411 11.3278H157.402V15.69H161.11V18.3774H157.402V25.8555C157.402 26.245 157.519 26.5566 157.675 26.7903C157.87 27.024 158.143 27.1408 158.495 27.1408C158.69 27.1408 158.846 27.1019 158.963 27.0629C159.08 27.024 159.197 26.985 159.314 26.9071C159.392 26.8682 159.509 26.7903 159.588 26.7513C159.666 26.7124 159.744 26.6734 159.822 26.6734C159.939 26.6734 160.017 26.7124 160.095 26.7513C160.173 26.7903 160.251 26.9071 160.329 27.024L161.5 28.8545C160.954 29.283 160.368 29.5946 159.705 29.7893C159.041 30.1009 158.339 30.2177 157.636 30.2177Z" fill="white"></path> <path d="M138.433 23.4017C138.55 24.7649 138.941 25.7386 139.604 26.3617C140.268 26.9849 141.087 27.2965 142.141 27.2965C142.688 27.2965 143.117 27.2186 143.507 27.1018C143.898 26.9849 144.249 26.8291 144.522 26.6733C144.834 26.5175 145.069 26.3617 145.303 26.2449C145.537 26.128 145.771 26.0501 146.005 26.0501C146.318 26.0501 146.552 26.167 146.708 26.4007L147.84 27.8028C147.449 28.2702 146.981 28.6597 146.474 28.9713C145.966 29.2829 145.459 29.5166 144.951 29.7113C144.405 29.906 143.898 30.0229 143.351 30.1008C142.805 30.1787 142.297 30.2176 141.79 30.2176C140.775 30.2176 139.838 30.0618 138.98 29.7113C138.121 29.3997 137.341 28.8934 136.716 28.2313C136.053 27.5691 135.545 26.7902 135.194 25.8165C134.804 24.8427 134.647 23.7522 134.647 22.5058C134.647 21.5321 134.804 20.5974 135.116 19.7405C135.428 18.8836 135.896 18.1436 136.521 17.4815C137.106 16.8583 137.848 16.313 138.707 15.9625C139.565 15.573 140.541 15.4172 141.634 15.4172C142.571 15.4172 143.39 15.573 144.171 15.8457C144.951 16.1573 145.615 16.5467 146.161 17.131C146.708 17.6762 147.176 18.3773 147.488 19.1952C147.801 20.0131 147.957 20.9479 147.957 21.9606C147.957 22.2332 147.957 22.4669 147.918 22.6616C147.879 22.8564 147.84 23.0122 147.762 23.0901C147.684 23.2069 147.606 23.2848 147.488 23.3238C147.371 23.3627 147.215 23.4017 147.059 23.4017H138.433V23.4017ZM144.483 21.1037C144.483 20.7142 144.444 20.3247 144.327 19.9742C144.21 19.6237 144.054 19.2731 143.82 19.0005C143.585 18.7279 143.312 18.4942 142.922 18.3384C142.571 18.1826 142.141 18.1047 141.634 18.1047C140.697 18.1047 139.995 18.3773 139.487 18.8836C138.98 19.39 138.629 20.13 138.472 21.1037H144.483Z" fill="white"></path> <path d="M130.432 11.5614C130.432 11.873 130.354 12.1846 130.237 12.4572C130.12 12.7298 129.925 12.9635 129.73 13.1972C129.495 13.392 129.261 13.5867 128.949 13.7036C128.637 13.8204 128.324 13.8983 128.012 13.8983C127.7 13.8983 127.388 13.8204 127.115 13.7036C126.841 13.5867 126.568 13.4309 126.373 13.1972C126.178 13.0025 125.983 12.7298 125.866 12.4572C125.748 12.1846 125.67 11.873 125.67 11.5614C125.67 11.2498 125.748 10.9382 125.866 10.6656C125.983 10.3929 126.178 10.1203 126.373 9.92556C126.568 9.73082 126.841 9.53607 127.115 9.41923C127.388 9.30238 127.7 9.22449 128.012 9.22449C128.364 9.22449 128.676 9.30238 128.949 9.41923C129.261 9.53607 129.495 9.69187 129.73 9.92556C129.964 10.1203 130.12 10.3929 130.237 10.6656C130.354 10.8993 130.432 11.2109 130.432 11.5614ZM129.964 15.612V30.2566C129.964 30.9187 129.886 31.503 129.73 32.0872C129.573 32.6714 129.3 33.1778 128.91 33.5672C128.52 33.9957 128.051 34.3462 127.427 34.5799C126.802 34.8136 126.061 34.9694 125.163 34.9694C124.812 34.9694 124.5 34.9304 124.226 34.8915C123.914 34.8525 123.641 34.7746 123.329 34.6967L123.485 32.6714C123.485 32.4767 123.563 32.3598 123.68 32.2819C123.797 32.204 124.031 32.1651 124.382 32.1651C124.734 32.1651 125.007 32.1261 125.241 32.0872C125.475 32.0093 125.631 31.9314 125.788 31.7756C125.905 31.6198 126.022 31.4251 126.061 31.1914C126.1 30.9577 126.139 30.6461 126.139 30.2566V15.612H129.964Z" fill="white"></path> <path d="M114.39 29.9839V18.3773L113.258 18.1826C112.985 18.1436 112.751 18.0268 112.556 17.871C112.361 17.7152 112.283 17.5204 112.283 17.2478V15.7288H114.39V14.7941C114.39 13.9761 114.507 13.2361 114.781 12.574C115.054 11.9119 115.405 11.3666 115.874 10.8992C116.342 10.4318 116.927 10.0813 117.63 9.84761C118.332 9.61392 119.113 9.45813 119.972 9.45813C120.323 9.45813 120.635 9.45813 120.947 9.53603C121.26 9.57498 121.533 9.65287 121.845 9.73077L121.767 11.6392C121.767 11.9119 121.611 12.1066 121.416 12.1845C121.182 12.2624 120.947 12.3014 120.635 12.3014C120.245 12.3014 119.894 12.3403 119.581 12.4182C119.269 12.4961 118.996 12.6519 118.801 12.8466C118.606 13.0414 118.41 13.314 118.293 13.6646C118.176 14.0151 118.137 14.4435 118.137 14.9109V15.7288H121.728V18.4163H118.293V30.0229L114.39 29.9839Z" fill="white"></path> <path d="M101.862 29.9839V18.3773L100.73 18.1826C100.457 18.1436 100.223 18.0268 100.028 17.871C99.8325 17.7152 99.7544 17.5204 99.7544 17.2478V15.7288H101.862V14.7941C101.862 13.9761 101.979 13.2361 102.252 12.574C102.526 11.9119 102.877 11.3666 103.345 10.8992C103.814 10.4318 104.399 10.0813 105.102 9.84761C105.804 9.61392 106.585 9.45813 107.443 9.45813C107.795 9.45813 108.107 9.45813 108.419 9.53603C108.731 9.57498 109.005 9.65287 109.317 9.73077L109.239 11.6392C109.239 11.9119 109.083 12.1066 108.887 12.1845C108.653 12.2624 108.419 12.3014 108.107 12.3014C107.717 12.3014 107.365 12.3403 107.053 12.4182C106.741 12.4961 106.468 12.6519 106.272 12.8466C106.077 13.0414 105.882 13.314 105.765 13.6646C105.648 14.0151 105.609 14.4435 105.609 14.9109V15.7288H109.2V18.4163H105.765V30.0229L101.862 29.9839Z" fill="white"></path> <path d="M91.1282 23.9859C90.1915 24.0248 89.4109 24.1027 88.7864 24.2196C88.1619 24.3364 87.6545 24.4922 87.3033 24.687C86.952 24.8817 86.6788 25.0765 86.5227 25.3101C86.3665 25.5438 86.2885 25.8165 86.2885 26.0891C86.2885 26.6344 86.4446 27.0239 86.7568 27.2576C87.0691 27.4913 87.4984 27.6081 88.0448 27.6081C88.6693 27.6081 89.2548 27.4913 89.7231 27.2576C90.1915 27.0239 90.6599 26.6733 91.1282 26.206V23.9859ZM83.2831 17.5984C84.1418 16.8194 85.0785 16.2741 86.0933 15.8846C87.1081 15.4951 88.24 15.3394 89.4109 15.3394C90.2696 15.3394 91.0502 15.4951 91.7137 15.7678C92.3772 16.0404 92.9627 16.4299 93.431 16.9362C93.8994 17.4426 94.2507 18.0268 94.5239 18.7279C94.7581 19.4289 94.9142 20.169 94.9142 20.9869V30.0229H93.1188C92.7675 30.0229 92.4943 29.984 92.2991 29.8671C92.104 29.7503 91.9479 29.5555 91.8308 29.2439L91.5185 28.3092C91.1673 28.6208 90.816 28.8934 90.4647 29.1271C90.1134 29.3608 89.7622 29.5555 89.4109 29.7113C89.0596 29.8671 88.6693 29.984 88.24 30.1008C87.8107 30.1787 87.3423 30.2176 86.8349 30.2176C86.2104 30.2176 85.625 30.1397 85.1176 29.984C84.6102 29.8282 84.1418 29.5555 83.7905 29.2439C83.4002 28.9323 83.127 28.5039 82.9319 27.9976C82.7367 27.4913 82.6196 26.946 82.6196 26.2839C82.6196 25.7386 82.7367 25.2322 83.0099 24.687C83.2831 24.1417 83.7515 23.6743 84.415 23.2459C85.0785 22.8174 85.9372 22.4669 87.0301 22.1553C88.1229 21.8827 89.489 21.7269 91.1282 21.6879V20.9479C91.1282 20.0521 90.9331 19.39 90.5428 18.9616C90.1525 18.5331 89.6061 18.3384 88.9035 18.3384C88.3571 18.3384 87.9278 18.4163 87.5765 18.5331C87.2252 18.65 86.913 18.8058 86.6398 18.9226C86.3665 19.0784 86.1324 19.1952 85.8982 19.3121C85.664 19.4289 85.3908 19.5068 85.0785 19.5068C84.8053 19.5068 84.5711 19.4289 84.415 19.3121C84.2199 19.1952 84.0638 19.0005 83.9467 18.8447L83.2831 17.5984Z" fill="white"></path> <path d="M74.7356 30.2177C74.0721 30.2177 73.5257 30.1009 73.0183 29.9451C72.5109 29.7503 72.0816 29.4777 71.7303 29.1272C71.379 28.7766 71.1448 28.3482 70.9497 27.8419C70.7545 27.3355 70.6765 26.7903 70.6765 26.1281V18.3774H69.3104C69.1153 18.3774 68.9201 18.2995 68.803 18.1827C68.6469 18.0658 68.5688 17.8711 68.5688 17.5985V16.0795L70.8716 15.651L71.6522 11.9509C71.7693 11.5225 72.0425 11.3278 72.5109 11.3278H74.5015V15.69H78.2093V18.3774H74.5015V25.8555C74.5015 26.245 74.5795 26.5566 74.7747 26.7903C74.9698 27.024 75.243 27.1408 75.5943 27.1408C75.7895 27.1408 75.9456 27.1019 76.0627 27.0629C76.1798 27.024 76.2968 26.985 76.4139 26.9071C76.492 26.8682 76.6091 26.7903 76.6872 26.7513C76.7652 26.7124 76.8433 26.6734 76.9213 26.6734C77.0384 26.6734 77.1165 26.7124 77.1945 26.7513C77.2726 26.7903 77.3507 26.9071 77.4287 27.024L78.5996 28.8545C78.0532 29.283 77.4678 29.5946 76.8042 29.7893C76.1407 30.1009 75.4772 30.2177 74.7356 30.2177Z" fill="white"></path> <path d="M63.456 13.6646C63.3389 13.8594 63.1828 14.0152 63.0657 14.132C62.9486 14.2489 62.7534 14.2878 62.5583 14.2878C62.3631 14.2878 62.1289 14.2099 61.8948 14.0541C61.6606 13.8983 61.3874 13.7425 61.0751 13.5867C60.7629 13.431 60.4116 13.2752 59.9823 13.1194C59.592 12.9636 59.0846 12.9246 58.5382 12.9246C57.5624 12.9246 56.8599 13.1194 56.3525 13.5867C55.8841 14.0152 55.6109 14.5994 55.6109 15.3005C55.6109 15.7289 55.728 16.1184 56.0012 16.391C56.2744 16.7026 56.6257 16.9363 57.055 17.17C57.4843 17.3647 57.9917 17.5595 58.5382 17.7542C59.0846 17.91 59.631 18.1048 60.2165 18.2995C60.8019 18.4942 61.3483 18.7279 61.8948 19.0006C62.4412 19.2732 62.9486 19.6238 63.3779 20.0132C63.8073 20.4027 64.1585 20.909 64.4317 21.4933C64.7049 22.0775 64.822 22.8175 64.822 23.6354C64.822 24.5702 64.6659 25.4271 64.3537 26.206C64.0414 27.0239 63.5731 27.725 62.9486 28.3092C62.3631 28.8935 61.5825 29.3998 60.7239 29.7114C59.8652 30.023 58.8114 30.2177 57.7185 30.2177C57.094 30.2177 56.4305 30.1398 55.806 30.023C55.1815 29.9061 54.5571 29.7114 53.9716 29.4777C53.3862 29.244 52.8397 28.9714 52.2933 28.6598C51.7859 28.3482 51.3175 27.9587 50.9272 27.5692L52.1372 25.5829C52.2543 25.4271 52.3714 25.3102 52.5275 25.1934C52.6836 25.0765 52.8788 25.0376 53.0739 25.0376C53.3081 25.0376 53.5813 25.1155 53.8545 25.3102C54.1277 25.505 54.44 25.6997 54.8303 25.9334C55.1815 26.1671 55.6109 26.3618 56.0792 26.5566C56.5476 26.7513 57.1331 26.8292 57.7966 26.8292C58.7723 26.8292 59.5139 26.5955 60.0603 26.1671C60.6068 25.7386 60.8409 25.0765 60.8409 24.1807C60.8409 23.6744 60.7239 23.2459 60.4506 22.9344C60.1774 22.6228 59.8262 22.3501 59.3968 22.1554C58.9675 21.9607 58.4991 21.7659 57.9137 21.6101C57.3672 21.4543 56.8208 21.2985 56.2354 21.1038C55.6499 20.909 55.1035 20.7143 54.5571 20.4417C54.0106 20.169 53.5032 19.8574 53.0739 19.429C52.6446 19.0006 52.2933 18.4553 52.0201 17.8321C51.7469 17.209 51.6298 16.43 51.6298 15.4952C51.6298 14.7552 51.7859 14.0152 52.0591 13.3141C52.3714 12.613 52.8007 11.9899 53.3862 11.4446C53.9716 10.8993 54.6742 10.4709 55.5328 10.1203C56.3915 9.76981 57.3282 9.61401 58.4211 9.61401C59.631 9.61401 60.7629 9.80876 61.8167 10.1593C62.8705 10.5488 63.7292 11.0551 64.4317 11.7172L63.456 13.6646Z" fill="white"></path> <path d="M21.8105 18.2605C30.2021 15.612 32.8561 20.1689 29.5776 27.5302C27.2748 32.6714 21.4202 37.0725 17.1269 38.6694C13.7703 39.9158 10.0234 40.5 6.08133 40.5C2.99794 40.5 0.5 38.0073 0.5 34.9304V6.06962C0.5 2.9927 2.99794 0.5 6.08133 0.5H21.069C14.5899 2.72006 8.30606 6.92649 5.76909 13.4698C4.44206 16.8583 4.52012 20.5584 7.52545 23.5575C12.6384 28.6597 24.4256 26.907 26.4942 19.2342L21.8105 18.2605Z" fill="#0091D2"></path> <path d="M34.9637 0.53894C28.8749 0.53894 20.6005 2.09688 15.2533 6.57594C9.28171 11.5224 7.83759 20.4026 16.7365 21.1816C19.3906 21.4153 22.7862 20.8311 26.4941 19.2731L21.8104 18.2605C25.128 15.5341 29.5775 14.8719 32.6218 16.2741C41.0524 20.2079 33.1683 35.3588 20.8737 40.5H34.9637C38.047 40.5 40.545 38.0073 40.545 34.9304V6.06961C40.545 3.07059 38.047 0.53894 34.9637 0.53894ZM21.7324 15.3393C19.2735 15.3393 17.322 13.353 17.322 10.9382C17.322 8.48441 19.3125 6.53699 21.7324 6.53699C24.1913 6.53699 26.1428 8.52336 26.1428 10.9382C26.1428 13.353 24.1913 15.3393 21.7324 15.3393Z" fill="#EB6020"></path> </g> <defs> <clipPath id="clip0_524_2026"> <rect width="161" height="40" fill="white" transform="translate(0.5 0.5)"></rect> </clipPath> </defs> </svg> 