<?xml version="1.0" encoding="UTF-8"?> <svg xmlns="http://www.w3.org/2000/svg" width="48" height="48" viewBox="0 0 48 48" fill="none"> <path d="M42.8708 5.16397C41.8703 4.1372 40.3897 3.75467 39.0092 4.15733L6.81599 13.519C5.3594 13.9237 4.32697 15.0854 4.04886 16.5611C3.76474 18.063 4.75715 19.9696 6.05368 20.7668L16.1198 26.9536C17.1522 27.5878 18.4848 27.4288 19.3391 26.5671L30.8658 14.9686C31.4461 14.3646 32.4065 14.3646 32.9867 14.9686C33.5669 15.5525 33.5669 16.4987 32.9867 17.1027L21.44 28.7032C20.5836 29.5628 20.4236 30.9016 21.0538 31.9405L27.2043 42.1075C27.9246 43.3155 29.1651 44 30.5257 44C30.6858 44 30.8658 44 31.0259 43.9799C32.5865 43.7785 33.8271 42.7115 34.2872 41.2015L43.8311 9.04958C44.2513 7.68056 43.8712 6.19073 42.8708 5.16397Z" fill="#0091D2"></path> </svg> 