<?xml version="1.0" encoding="UTF-8"?> <svg xmlns="http://www.w3.org/2000/svg" xmlns:xlink="http://www.w3.org/1999/xlink" id="Layer_1" viewBox="0 0 2965.96 1736.82"> <defs> <style>.cls-1{fill:#fc854f;}.cls-2{fill:#eb6020;}.cls-3{opacity:.3;}.cls-4{fill:#d75101;}.cls-5{clip-path:url(#clippath);}.cls-6{fill:none;}</style> <clipPath id="clippath"> <rect class="cls-6" x="151.62" y="64.87" width="2665.88" height="1543.35"></rect> </clipPath> </defs> <g class="cls-5"> <g> <path class="cls-2" d="m2817.5,64.87H151.62v1543.35h2665.88V64.87Z"></path> <g class="cls-3"> <path class="cls-1" d="m1308.7,64.87h-133.17l216.09,548.5-82.92-548.5Z"></path> <path class="cls-1" d="m1606.65,64.87h-133.05l-81.98,548.5,215.03-548.5Z"></path> <path class="cls-1" d="m953.76,64.87h-251.8l689.66,548.5L953.76,64.87Z"></path> <path class="cls-1" d="m2078.9,64.87h-250.94l-436.34,548.5L2078.9,64.87Z"></path> <path class="cls-1" d="m2886.08,387.49l5.36-364.87-1499.82,590.75,1494.46-225.88Z"></path> <path class="cls-1" d="m1553.49,1684.11l253.49-16.43-415.36-1054.31,161.87,1070.73Z"></path> <path class="cls-1" d="m2259.91,1701.07l452.29-37.42L1391.62,613.37l868.29,1087.69Z"></path> <path class="cls-1" d="m1391.62,613.37l1488.07,583.21-5.59-361.7-1482.49-221.51Z"></path> <path class="cls-1" d="m91.62,110.88L31.62,394.91l1360,218.47L91.62,110.88Z"></path> <path class="cls-1" d="m23.62,822.95l32,318.03,1336-527.61L23.62,822.95Z"></path> <path class="cls-1" d="m68.52,1669.3l491.76-10.91,831.33-1045.01L68.52,1669.3Z"></path> <path class="cls-1" d="m984.38,1652.16l250.91,7.15,156.33-1045.94-407.24,1038.79Z"></path> </g> <g> <path class="cls-4" d="m2849.04,1624.18l6.25-45.11-1087.95-735.51,1081.7,780.62Z"></path> <path class="cls-4" d="m2384.18,1645.68l54.97-12.85-872.61-845.23,817.64,858.07Z"></path> <path class="cls-4" d="m2511.36,1655.98l64.97-9.9-709.27-654.58,644.3,664.48Z"></path> <path class="cls-4" d="m1930.43,1664.14l84.84,21.93-549.53-884.57,464.7,862.65Z"></path> <path class="cls-4" d="m2088.62,1646.62l78.73,11.85-521.81-683.73,443.08,671.88Z"></path> <path class="cls-4" d="m1601.48,1649.81l91.44,87.01-227.19-778.06,135.75,691.05Z"></path> <path class="cls-4" d="m62.47,1538.86l-.48-43.63,963.97-651.68L62.47,1538.86Z"></path> <path class="cls-4" d="m117.69,1418.73l-6.61-31.98,556.09-362.16L117.69,1418.73Z"></path> <path class="cls-4" d="m367.67,1689.17l-61.01-10.35,920.1-891.2-859.09,901.56Z"></path> <path class="cls-4" d="m258.83,1679.75l-47.53-28.5,714.94-659.75-667.42,688.25Z"></path> <path class="cls-4" d="m878.56,1635.05l-84.38,25,533.38-858.55-449,833.56Z"></path> <path class="cls-4" d="m682.61,1680.03l-46.53-34.87,511.67-670.42-465.14,705.29Z"></path> <path class="cls-4" d="m1183.6,1691.45l-68.73-4.27,212.7-728.43-143.96,732.69Z"></path> <path class="cls-4" d="m2965.96,633.68l-76.36-86.88-886.84,55.05,963.2,31.83Z"></path> <path class="cls-4" d="m2351.62,946.07v-13.15l-299.95-130.49,299.95,143.64Z"></path> <path class="cls-4" d="m2852.45,1185.91l9.56-30.96-810.34-352.53,800.78,383.48Z"></path> <path class="cls-4" d="m2884.73,0l-23.62,46.8-809.44,352.1L2884.73,0Z"></path> </g> <g> <path class="cls-4" d="m574.81,64.87h-29.75l470.85,318.32L574.81,64.87Z"></path> <path class="cls-4" d="m465.72,64.87h-19.41l210.79,137.29-191.39-137.29Z"></path> <path class="cls-4" d="m860.06,64.87h-29.76l386.39,374.26L860.06,64.87Z"></path> <path class="cls-4" d="m750.98,64.87h-19.41l184.62,170.38-165.21-170.38Z"></path> <path class="cls-4" d="m1123.38,64.87h-29.75l223.89,360.38-194.13-360.38Z"></path> <path class="cls-4" d="m1014.29,64.87h-19.41l142.83,187.14-123.42-187.14Z"></path> <path class="cls-4" d="m1277.6,64.87h-19.4l59.31,203.12-39.91-203.12Z"></path> <path class="cls-4" d="m2198.37,64.87h29.77l-470.86,318.32,441.09-318.32Z"></path> <path class="cls-4" d="m1913.11,64.87h29.77l-386.4,374.26,356.63-374.26Z"></path> <path class="cls-4" d="m2022.21,64.87h19.41l-184.62,170.38,165.21-170.38Z"></path> <path class="cls-4" d="m1649.8,64.87h29.77l-223.89,360.38,194.12-360.38Z"></path> <path class="cls-4" d="m1758.9,64.87h19.41l-142.83,187.14,123.42-187.14Z"></path> <path class="cls-4" d="m1495.59,64.87h19.4l-59.31,203.12,39.91-203.12Z"></path> <path class="cls-4" d="m73.62,610.93l14,58.01,692.86-39.39-706.86-18.61Z"></path> <path class="cls-4" d="m119.62,470.91v36l497.68,39.02-497.68-75.03Z"></path> <path class="cls-4" d="m431.62,412.31v13.15l190.92,33.43-190.92-46.58Z"></path> <path class="cls-4" d="m431.62,280.67v13.15l299.95,130.49-299.95-143.64Z"></path> <path class="cls-4" d="m431.62,160v13.15l181.25,78.85-181.25-92.01Z"></path> <path class="cls-4" d="m95.62,330.9l20,42,506.92,85.99L95.62,330.9Z"></path> <path class="cls-4" d="m113.62,132.88v36l617.95,255.43L113.62,132.88Z"></path> <path class="cls-4" d="m129.62,14.87l-50,14,533.25,223.14L129.62,14.87Z"></path> <path class="cls-4" d="m115.62,796.95v-46.01l527.72-46.63-527.72,92.63Z"></path> <path class="cls-4" d="m101.62,926.96v-46l520.92-87.71L101.62,926.96Z"></path> <path class="cls-4" d="m91.62,1128.98v-32.01l639.95-269.14L91.62,1128.98Z"></path> <path class="cls-4" d="m0,1313.98l63.13-63.82,549.74-250.01L0,1313.98Z"></path> </g> </g> </g> </svg> 