<?xml version="1.0" encoding="UTF-8"?> <svg xmlns="http://www.w3.org/2000/svg" width="48" height="48" viewBox="0 0 48 48" fill="none"> <path d="M33.879 6C36.561 6 39.141 7.06 41.039 8.962C42.939 10.86 44.001 13.42 44.001 16.1V31.9C44.001 37.48 39.461 42 33.879 42H14.121C8.53898 42 4.00098 37.48 4.00098 31.9V16.1C4.00098 10.52 8.51898 6 14.121 6H33.879ZM36.141 16.4C35.721 16.378 35.321 16.52 35.019 16.8L26.001 24C24.841 24.962 23.179 24.962 22.001 24L13.001 16.8C12.379 16.34 11.519 16.4 11.001 16.94C10.461 17.48 10.401 18.34 10.859 18.94L11.121 19.2L20.221 26.3C21.341 27.18 22.699 27.66 24.121 27.66C25.539 27.66 26.921 27.18 28.039 26.3L37.061 19.08L37.221 18.92C37.699 18.34 37.699 17.5 37.199 16.92C36.921 16.622 36.539 16.44 36.141 16.4Z" fill="#EB6020"></path> </svg> 