<?xml version="1.0" encoding="UTF-8"?> <svg xmlns="http://www.w3.org/2000/svg" width="1920" height="800" fill="none"> <g clip-path="url(#a)"> <path fill="#D9D9D9" d="M0 0h1920v800H0z"></path> <g clip-path="url(#b)"> <path fill="#2497EB" d="M2424 0H0v802h2424V0Z"></path> <g fill="#4FB5FC" opacity=".3"> <path d="M1294.17 0H1149.9L1384 401 1294.17 0ZM1616.95 0h-144.14L1384 401 1616.95 0ZM909.649 0h-272.79L1384 401 909.649 0ZM2128.55 0H1856.7L1384 401 2128.55 0ZM2424 294.918V124.557L1384 401l1040-106.082ZM1473.84 802h144.27l-234.1-401 89.84 401h-.01Z"></path> <path d="M1858.35 802h272.8L1384 401l474.35 401ZM1384 401l1040 275.07V505.872L1384 401ZM-52 20l26 232 1410 149L-52 20ZM-56 544l12 248 1428-391L-56 544ZM639.448 802h271.85L1384 401 639.448 802ZM1151.05 802h144.14L1384 401l-232.95 401Z"></path> </g> <path fill="#5FACF9" d="M2268.89 802h32.22l-510.08-232.714L2268.89 802ZM1959.85 802h32.24l-418.6-273.621L1959.85 802ZM2078.03 802h21.03l-200.01-124.556L2078.03 802ZM1674.59 802h32.24l-242.54-263.465L1674.59 802ZM1792.78 802h21.02l-154.72-136.811L1792.78 802ZM1507.52 802h21.02l-64.26-148.497L1507.51 802h.01ZM510.024 802h-32.251l510.098-232.714L510.013 802h.011ZM819.048 802h-32.24l418.602-273.621L819.048 802ZM700.853 802h-21.021l200.012-124.556L700.853 802ZM1104.31 802h-32.25l242.54-263.465L1104.31 802ZM986.112 802h-21.021l154.729-136.811L986.112 802ZM1271.37 802h-21.02l64.26-148.497L1271.38 802h-.01ZM499.126 0h-32.229l510.087 232.714L499.126 0ZM808.15 0h-32.229l418.589 273.621L808.15 0ZM689.966 0h-21.022l200.001 124.556L689.966 0ZM1093.41 0h-32.23l242.54 263.465L1093.41 0ZM975.224 0h-21.021l154.727 136.81L975.224 0ZM1260.48 0h-21.02l64.26 148.497L1260.48 0ZM2257.98 0h32.25l-510.1 232.714L2257.98 0ZM1948.95 0h32.24l-418.6 273.621L1948.95 0ZM2067.15 0h21.02l-200.01 124.556L2067.15 0ZM1663.69 0h32.24l-242.54 263.465L1663.69 0ZM1781.89 0h21.02l-154.73 136.81L1781.89 0ZM1496.63 0h21.02l-64.25 148.497L1496.63 0ZM-58 394v48l779.929-29.179L-58 394ZM344 157.771v9.619l324.945 95.396L344 157.771Z"></path> <path fill="#5FACF9" d="M-52 30v28l720.945 204.786L-52 30ZM-56 794v-33l724.945-203.207L-56 794Z"></path> <path fill="url(#c)" d="M2424 0H4v802h2420V0Z"></path> </g> </g> <defs> <clipPath id="a"> <path fill="#fff" d="M0 0h1920v800H0z"></path> </clipPath> <clipPath id="b"> <path fill="#fff" d="M0 0h2424v802H0z"></path> </clipPath> <radialGradient id="c" cx="0" cy="0" r="1" gradientTransform="matrix(985.442 0 0 571.511 1215.66 403.025)" gradientUnits="userSpaceOnUse"> <stop stop-color="#fff" stop-opacity="0"></stop> <stop offset="1" stop-color="#231F20" stop-opacity=".04"></stop> </radialGradient> </defs> </svg> 